<?xml version="1.0" encoding="utf-8"?>
<!-- Generator: Adobe Illustrator 17.0.0, SVG Export Plug-In . SVG Version: 6.00 Build 0)  -->
<!DOCTYPE svg PUBLIC "-//W3C//DTD SVG 1.1//EN" "http://www.w3.org/Graphics/SVG/1.1/DTD/svg11.dtd">
<svg version="1.1" id="图层_1" xmlns="http://www.w3.org/2000/svg" xmlns:xlink="http://www.w3.org/1999/xlink" x="0px" y="0px"
	 width="12px" height="42px" viewBox="0 0 12 42" enable-background="new 0 0 12 42" xml:space="preserve">
<path fill-rule="evenodd" clip-rule="evenodd" fill="#575757" d="M6,0C2.686,0,0,2.686,0,6c0,3.314,2.686,6,6,6c3.314,0,6-2.686,6-6
	C12,2.686,9.314,0,6,0z M10.304,3.873c0.054,0.109,0.114,0.213,0.16,0.327c-0.121-0.007-0.242-0.014-0.363-0.021
	C10.168,4.076,10.236,3.975,10.304,3.873z M4.762,1.509C4.703,1.47,4.623,1.452,4.548,1.429C4.74,1.368,4.93,1.306,5.132,1.269
	c0.189,0.491,0.022,0.043,0.464,0.407C5.374,1.954,5.151,2.232,4.929,2.51c-0.167,0.111-0.334,0.222-0.5,0.333
	C4.195,2.527,4.416,2.742,4.095,2.51C4.039,2.399,3.984,2.288,3.928,2.177C4.262,2.121,4.596,2.065,4.929,2.01
	C4.857,1.577,5.088,1.919,4.762,1.509z M6,10.818c-0.305,0-0.602-0.036-0.891-0.09C5.432,9.968,5.983,9.024,6.72,8.61
	C7.059,6.647,5.889,8,4.929,6H3.928C3.706,6,3.484,6.201,3.261,6.257c0,0.055,0.035,1.206,0.035,1.262
	c0.976,0.443,1.117,1.724,1.332,3.055C2.64,9.979,1.182,8.169,1.182,5.989c0-0.408,0.066-0.793,0.162-1.171
	c0.454,0.603,0.998,1.007,1.917,1.527C3.045,5.846,3.055,6.145,2.714,5.845C2.793,5.249,3,5.594,2,5.513V4.846
	c1-0.193,1.135-0.058,1.715,0.167c0.07-0.334,0.866-0.552,1.161-0.861c0.434-0.457,0.233-1.248,1.22-1.306
	C5.879,2.369,5.82,2.555,5.403,2.01C5.681,1.954,5.972,1.899,6.25,1.843C6.042,1.635,5.84,1.426,5.632,1.218
	c0.122-0.009,0.241-0.036,0.365-0.036c0.313,0,0.619,0.035,0.916,0.092c-0.05,0.301-0.1,0.602-0.15,0.903
	C7.242,2.07,7.702,1.911,8.074,1.668c0.813,0.39,1.499,0.993,1.981,1.748c-0.147,0.623-0.504,1.159-0.956,1.93
	c0.07,1.233,0.405,1.397,1.65,1.342C10.413,9.02,8.426,10.818,6,10.818z"/>
<path fill-rule="evenodd" clip-rule="evenodd" fill="#CA1300" d="M6,30c-3.314,0-6,2.686-6,6c0,3.314,2.686,6,6,6
	c3.314,0,6-2.686,6-6C12,32.686,9.314,30,6,30z M10.304,33.873c0.054,0.109,0.114,0.213,0.16,0.327
	c-0.121-0.007-0.242-0.014-0.363-0.021C10.168,34.076,10.236,33.975,10.304,33.873z M4.762,31.509
	c-0.059-0.039-0.139-0.057-0.214-0.081c0.192-0.061,0.382-0.123,0.584-0.16c0.189,0.491,0.022,0.043,0.464,0.407
	c-0.222,0.278-0.445,0.556-0.667,0.834c-0.167,0.111-0.334,0.223-0.5,0.334c-0.234-0.317-0.013-0.101-0.334-0.334
	c-0.056-0.111-0.111-0.222-0.167-0.333c0.334-0.056,0.667-0.111,1.001-0.167C4.857,31.577,5.088,31.919,4.762,31.509z M6,40.818
	c-0.305,0-0.602-0.036-0.891-0.09c0.323-0.76,0.874-1.704,1.611-2.118C7.059,36.647,5.889,38,4.929,36H3.928
	c-0.222,0-0.445,0.201-0.667,0.257c0,0.056,0.035,1.206,0.035,1.262c0.976,0.443,1.117,1.724,1.332,3.055
	c-1.988-0.594-3.446-2.404-3.446-4.585c0-0.408,0.066-0.793,0.162-1.171c0.454,0.603,0.998,1.007,1.917,1.527
	c-0.216-0.498-0.207-0.199-0.547-0.499C2.793,35.249,3,35.594,2,35.513v-0.667c1-0.192,1.135-0.058,1.715,0.167
	c0.07-0.334,0.866-0.552,1.161-0.861c0.434-0.457,0.233-1.248,1.22-1.306c-0.217-0.476-0.276-0.29-0.693-0.835
	c0.278-0.055,0.569-0.111,0.847-0.167c-0.208-0.208-0.41-0.416-0.618-0.625c0.122-0.009,0.241-0.036,0.365-0.036
	c0.313,0,0.619,0.035,0.916,0.092c-0.05,0.301-0.1,0.602-0.15,0.903c0.479-0.106,0.939-0.265,1.311-0.509
	c0.813,0.39,1.499,0.993,1.982,1.748c-0.147,0.623-0.504,1.159-0.956,1.93c0.07,1.233,0.405,1.397,1.65,1.342
	C10.413,39.02,8.426,40.818,6,40.818z"/>
</svg>
