<?xml version="1.0" encoding="utf-8"?>
<!-- Generator: Adobe Illustrator 17.0.0, SVG Export Plug-In . SVG Version: 6.00 Build 0)  -->
<!DOCTYPE svg PUBLIC "-//W3C//DTD SVG 1.1//EN" "http://www.w3.org/Graphics/SVG/1.1/DTD/svg11.dtd">
<svg version="1.1" id="图层_1" xmlns="http://www.w3.org/2000/svg" xmlns:xlink="http://www.w3.org/1999/xlink" x="0px" y="0px"
	 width="18px" height="18px" viewBox="0 0 18 18" enable-background="new 0 0 18 18" xml:space="preserve">
<g>
	<g>
		<path fill-rule="evenodd" clip-rule="evenodd" fill="#444444" d="M10,6H8v2H6v2h2v2h2v-2h2V8h-2V6z M17.574,15.608l-2.661-2.734
			c0.715-1.098,1.135-2.406,1.135-3.814c0-3.866-3.134-7-7-7c-3.866,0-7,3.134-7,7c0,3.866,3.134,7,7,7
			c1.446,0,2.79-0.439,3.906-1.191l2.532,2.532c0.255,0.32,0.631,0.538,1.073,0.538c0.769,0,1.392-0.623,1.392-1.392
			C17.952,16.183,17.804,15.856,17.574,15.608z M8.979,13.991c-2.761,0-5-2.239-5-5c0-2.762,2.239-5,5-5c2.762,0,5,2.238,5,5
			C13.979,11.752,11.74,13.991,8.979,13.991z"/>
	</g>
</g>
</svg>
