<svg width="176" height="16" viewBox="0 0 176 16" xmlns="http://www.w3.org/2000/svg"><title>board_list_icons</title><desc>Created with Sketch.</desc><g fill="#bbb"><path d="M7.5 14c3.59 0 6.5-2.91 6.5-6.5s-2.91-6.5-6.5-6.5-6.5 2.91-6.5 6.5 2.91 6.5 6.5 6.5zm.5-6.707v-4.802c0-.263-.224-.491-.5-.491-.268 0-.5.22-.5.491v5.018c0 .084.023.164.063.234l.08.106 2.154 2.154c.196.196.508.192.703-.004.19-.19.197-.51.004-.703l-2.004-2.004zm-.5 7.707c-4.142 0-7.5-3.358-7.5-7.5 0-4.142 3.358-7.5 7.5-7.5 4.142 0 7.5 3.358 7.5 7.5 0 4.142-3.358 7.5-7.5 7.5z"/><path d="M87 7h-6v1h6v6h1v-6h6v-1h-6v-6h-1v6z"/><path d="M171.243 11.243c2.343-2.343 2.343-6.142 0-8.485-2.343-2.343-6.142-2.343-8.485 0-2.343 2.343-2.343 6.142 0 8.485 2.343 2.343 6.142 2.343 8.485 0zm-.707-.707c-1.953 1.953-5.118 1.953-7.071 0-1.953-1.953-1.953-5.118 0-7.071 1.953-1.953 5.118-1.953 7.071 0 1.953 1.953 1.953 5.118 0 7.071zm.601 1.308l.707-.707 4.243 4.243-.707.707-4.243-4.243z"/></g></svg>