<?xml version="1.0" encoding="UTF-8" standalone="no"?>
<svg width="72px" height="102px" viewBox="0 0 72 102" version="1.1" xmlns="http://www.w3.org/2000/svg" xmlns:xlink="http://www.w3.org/1999/xlink" xmlns:sketch="http://www.bohemiancoding.com/sketch/ns">
    <!-- Generator: Sketch 3.0.3 (7891) - http://www.bohemiancoding.com/sketch -->
    <title>bt_action_icons</title>
    <desc>Created with Sketch.</desc>
    <defs></defs>
    <g id="Page-1" stroke="none" stroke-width="1" fill="none" fill-rule="evenodd" sketch:type="MSPage">
        <g id="all" sketch:type="MSArtboardGroup" transform="translate(-444.000000, 0.000000)">
            <g id="Group" sketch:type="MSLayerGroup" transform="translate(444.000000, 1.000000)">
                <path d="M6.438,71 L6,71 C6.119,71.071 6.257,71.094 6.438,71 L6.438,71 Z" id="Path" fill="#222121" sketch:type="MSShapeGroup"></path>
                <path d="M6.438,41 L6,41 C6.18,41.094 6.318,41.072 6.438,41 L6.438,41 Z" id="Path" fill="#524D4D" sketch:type="MSShapeGroup"></path>
                <path d="M6.438,41 L6,41 C6.119,41.072 6.257,41.094 6.438,41 L6.438,41 Z" id="Path" fill="#524D4D" sketch:type="MSShapeGroup"></path>
                <path d="M8.90616398,30 C7.13053632,30 6.15263992,31.8796195 6.00050046,32.1965789 C5.84736008,31.8796195 4.86946368,30 3.09383602,30 C0.968888147,30 0,31.9188621 0,33.5640322 C0,37.2196304 4.03169572,39.9716429 6.00050046,41 C7.96830428,39.9716429 12,37.2196304 12,33.5640322 C12,31.9188621 11.0311119,30 8.90616398,30 L8.90616398,30 Z" id="Path" fill="#524D4D" sketch:type="MSShapeGroup"></path>
                <path d="M6.438,71 L6,71 C6.18,71.094 6.318,71.071 6.438,71 L6.438,71 Z" id="Path" fill="#222121" sketch:type="MSShapeGroup"></path>
                <path d="M6.438,11 L6,11 C6.18,11.094 6.318,11.072 6.438,11 L6.438,11 Z" id="Path" fill="#A6A6A6" sketch:type="MSShapeGroup"></path>
                <path d="M8.90616398,90 C7.13053632,90 6.15263992,91.8796195 6.00050046,92.1965789 C5.84736008,91.8796195 4.86946368,90 3.09383602,90 C0.968888147,90 0,91.9188621 0,93.5640322 C0,97.2196304 4.03169572,99.9716429 6.00050046,101 C7.96830428,99.9716429 12,97.2196304 12,93.5640322 C12,91.9188621 11.0311119,90 8.90616398,90 L8.90616398,90 Z" id="Path" fill="#C90101" sketch:type="MSShapeGroup"></path>
                <path d="M70,30 L61,30 C60.447,30 60,30.448 60,31 L60,37 C60,37.552 60.447,38 61,38 L62.99,38 L61.968,38.031 L61.968,41 L64.968,38 L70,38 C70.552,38 71,37.552 71,37 L71,31 C71,30.448 70.552,30 70,30 Z M62,33 L63,33 L63,34 L62,34 L62,33 Z M65,33 L66,33 L66,34 L65,34 L65,33 Z M68,33 L69,33 L69,34 L68,34 L68,33 Z" id="Path" fill="#524D4D" sketch:type="MSShapeGroup"></path>
                <path d="M31,7 L35.032,2.98677286 L33,2.98677286 L33,1.99118191 L41,1.99118191 L41,0 L31,0 L31,7 Z M39,7.01322714 L39,8.00881809 L31,8.00881809 L31,10 L41,10 L41,3 L36.969,7.01322714 L39,7.01322714 Z" id="Path" fill="#A6A6A6" sketch:type="MSShapeGroup"></path>
                <path d="M70,0 L61,0 C60.447,0 60,0.448 60,1 L60,7 C60,7.552 60.447,8 61,8 L62.989,8 L61.968,8.031 L61.968,11 L64.968,8 L70,8 C70.552,8 71,7.552 71,7 L71,1 C71,0.448 70.552,0 70,0 Z M62,3 L63,3 L63,4 L62,4 L62,3 Z M65,3 L66,3 L66,4 L65,4 L65,3 Z M68,3 L69,3 L69,4 L68,4 L68,3 Z" id="Path" fill="#A6A6A6" sketch:type="MSShapeGroup"></path>
                <path d="M70,60 L61,60 C60.447,60 60,60.448 60,61 L60,67 C60,67.552 60.447,68 61,68 L62.99,68 L61.968,68.031 L61.968,71 L64.968,68 L70,68 C70.552,68 71,67.552 71,67 L71,61 C71,60.448 70.552,60 70,60 Z M62,63 L63,63 L63,64 L62,64 L62,63 Z M65,63 L66,63 L66,64 L65,64 L65,63 Z M68,63 L69,63 L69,64 L68,64 L68,63 Z" id="Path" fill="#222121" sketch:type="MSShapeGroup"></path>
                <path d="M31,37 L35.032,32.9867729 L33,32.9867729 L33,31.9911819 L41,31.9911819 L41,30 L31,30 L31,37 Z M39,37.0132271 L39,38.0088181 L31,38.0088181 L31,40 L41,40 L41,33 L36.969,37.0132271 L39,37.0132271 Z" id="Path" fill="#524D4D" sketch:type="MSShapeGroup"></path>
                <path d="M39,67.0132271 L39,68.0088181 L31,68.0088181 L31,70 L41,70 L41,63 L36.969,67.0132271 L39,67.0132271 Z M31,67 L35.032,62.9867729 L33,62.9867729 L33,61.9911819 L41,61.9911819 L41,60 L31,60 L31,67 Z" id="Path" fill="#222121" sketch:type="MSShapeGroup"></path>
                <path d="M8.90616398,0 C7.13053632,0 6.15263992,1.87961947 6.00050046,2.19657885 C5.84736008,1.87961947 4.86946368,0 3.09383602,0 C0.968888147,0 0,1.91886206 0,3.5640322 C0,7.21963044 4.03169572,9.97164288 6.00050046,11 C7.96830428,9.97164288 12,7.21963044 12,3.5640322 C12,1.91886206 11.0311119,0 8.90616398,0 L8.90616398,0 Z" id="Path" fill="#A6A6A6" sketch:type="MSShapeGroup"></path>
                <path d="M6.438,11 L6,11 C6.119,11.072 6.257,11.094 6.438,11 L6.438,11 Z" id="Path" fill="#A6A6A6" sketch:type="MSShapeGroup"></path>
                <path d="M8.90616398,60 C7.13053632,60 6.15263992,61.8796195 6.00050046,62.1965789 C5.84736008,61.8796195 4.86946368,60 3.09383602,60 C0.968888147,60 0,61.9188621 0,63.5640322 C0,67.2196304 4.03169572,69.9716429 6.00050046,71 C7.96830428,69.9716429 12,67.2196304 12,63.5640322 C12,61.9188621 11.0311119,60 8.90616398,60 L8.90616398,60 Z" id="Path" fill="#222121" sketch:type="MSShapeGroup"></path>
            </g>
        </g>
    </g>
</svg>