<?xml version="1.0" encoding="utf-8"?>
<!-- Generator: Adobe Illustrator 17.0.0, SVG Export Plug-In . SVG Version: 6.00 Build 0)  -->
<!DOCTYPE svg PUBLIC "-//W3C//DTD SVG 1.1//EN" "http://www.w3.org/Graphics/SVG/1.1/DTD/svg11.dtd">
<svg version="1.1" id="图层_1" xmlns="http://www.w3.org/2000/svg" xmlns:xlink="http://www.w3.org/1999/xlink" x="0px" y="0px"
	 width="48px" height="138px" viewBox="0 0 48 138" enable-background="new 0 0 48 138" xml:space="preserve">
<g>
	<path fill-rule="evenodd" clip-rule="evenodd" fill="#CCCCCC" d="M0,61c0-0.553,0.448-1,1-1h16c0.552,0,1,0.447,1,1v16
		c0,0.552-0.448,1-1,1H1c-0.552,0-1-0.448-1-1V61z"/>
	<path fill-rule="evenodd" clip-rule="evenodd" fill="#CCCCCC" d="M0,31c0-0.552,0.448-1,1-1h16c0.552,0,1,0.447,1,1v16
		c0,0.552-0.448,1-1,1H1c-0.552,0-1-0.448-1-1V31z"/>
	<path fill-rule="evenodd" clip-rule="evenodd" fill="#CCCCCC" d="M0,1c0-0.552,0.448-1,1-1h16c0.552,0,1,0.447,1,1v16
		c0,0.552-0.448,1-1,1H1c-0.552,0-1-0.448-1-1V1z"/>
	<path fill-rule="evenodd" clip-rule="evenodd" fill="#CCCCCC" d="M0,121c0-0.552,0.448-1,1-1h16c0.552,0,1,0.447,1,1v16
		c0,0.552-0.448,1-1,1H1c-0.552,0-1-0.448-1-1V121z"/>
	<path fill-rule="evenodd" clip-rule="evenodd" fill="#319ADD" d="M30,121c0-0.552,0.448-1,1-1h16c0.552,0,1,0.447,1,1v16
		c0,0.552-0.448,1-1,1H31c-0.552,0-1-0.448-1-1V121z"/>
	<path fill-rule="evenodd" clip-rule="evenodd" fill="#42ADCF" d="M30,61c0-0.553,0.448-1,1-1h16c0.552,0,1,0.447,1,1v16
		c0,0.552-0.448,1-1,1H31c-0.552,0-1-0.448-1-1V61z"/>
	<path fill-rule="evenodd" clip-rule="evenodd" fill="#4289D4" d="M30,31c0-0.552,0.448-1,1-1h16c0.552,0,1,0.447,1,1v16
		c0,0.552-0.448,1-1,1H31c-0.552,0-1-0.448-1-1V31z"/>
	<path fill="#FFFFFF" d="M47.475,6.365c-0.29,0-0.524-0.229-0.524-0.511c0-2.112-1.762-3.83-3.928-3.83
		c-0.29,0-0.525-0.229-0.525-0.512C42.498,1.229,42.733,1,43.022,1C45.767,1,48,3.177,48,5.853C48,6.136,47.765,6.365,47.475,6.365z
		"/>
	<path fill-rule="evenodd" clip-rule="evenodd" fill="#D6332A" d="M30,1c0-0.552,0.448-1,1-1h16c0.552,0,1,0.447,1,1v16
		c0,0.552-0.448,1-1,1H31c-0.552,0-1-0.448-1-1V1z"/>
	<path fill-rule="evenodd" clip-rule="evenodd" fill="#22A049" d="M30,91c0-0.553,0.448-1,1-1h16c0.552,0,1,0.447,1,1v16
		c0,0.552-0.448,1-1,1H31c-0.552,0-1-0.448-1-1V91z"/>
	<g>
		<path fill-rule="evenodd" clip-rule="evenodd" fill="#FFFFFF" d="M39,123.5c-3.314,0-6,2.686-6,6c0,3.314,2.686,6,6,6
			c3.314,0,6-2.686,6-6C45,126.186,42.314,123.5,39,123.5z M39.001,134.318c-2.661,0-4.818-2.158-4.818-4.819
			c0-2.661,2.157-4.818,4.818-4.818c2.661,0,4.818,2.157,4.818,4.818C43.819,132.161,41.662,134.318,39.001,134.318z"/>
		<path fill-rule="evenodd" clip-rule="evenodd" fill="#FFFFFF" d="M39.764,125.177c0.054-0.323,0.108-0.645,0.161-0.968
			c0.435,0.083,0.85,0.223,1.236,0.413C40.778,124.899,40.278,125.063,39.764,125.177z M38.108,124.207
			c0.293-0.055,0.594-0.085,0.903-0.085c0.246,0,0.487,0.019,0.723,0.054c-0.379,0-0.758,0-1.137,0
			c0.222,0.222,0.445,0.445,0.667,0.667c-0.278,0.056-0.556,0.111-0.834,0.167c0.417,0.545,0.503,0.359,0.72,0.835
			c-0.987,0.058-0.732,0.849-1.167,1.306c-0.294,0.31-0.984,0.527-1.054,0.862c-0.579-0.224-0.799-0.359-1.501-0.167
			c0,0.222,0,0.445,0,0.667c0.596,0.081,0.58-0.262,0.5,0.334c0.341,0.3,0.118,0.003,0.334,0.501
			c-0.951-0.538-1.502-0.943-1.965-1.581c0.412-1.585,1.601-2.854,3.136-3.38c0.131,0.025,0.24,0.064,0.33,0.124
			c0.326,0.41,0.094,0.068,0.167,0.5c-0.333,0.056-0.667,0.111-1.001,0.167c0.056,0.111,0.111,0.222,0.167,0.334
			c0.321,0.232,0.1,0.017,0.334,0.334c0.167-0.111,0.334-0.222,0.5-0.334c0.222-0.278,0.445-0.556,0.667-0.834
			C38.134,124.295,38.342,124.815,38.108,124.207z M37.929,129.18c0.96,1.415,2.13,0.557,1.791,2.521
			c-0.752,0.423-1.314,1.304-1.634,2.076c-0.152-0.029-0.3-0.065-0.447-0.108c-0.221-1.358-0.349-2.653-1.343-3.105
			c0-0.056-0.035-1.162-0.035-1.217c0.222-0.056,0.445-0.111,0.667-0.167C37.262,129.18,37.596,129.18,37.929,129.18z M43.1,127.178
			c0.147,0.009,0.295,0.017,0.442,0.026c0.219,0.554,0.341,1.158,0.341,1.79c0,0.235-0.018,0.465-0.05,0.691
			c-1.319,0.067-1.662-0.077-1.734-1.339c0.475-0.811,0.853-1.359,0.984-2.025c0.1,0.151,0.191,0.309,0.273,0.472
			C43.271,126.921,43.186,127.05,43.1,127.178z"/>
	</g>
	<path fill-rule="evenodd" clip-rule="evenodd" fill="#CCCCCC" d="M0,91c0-0.553,0.448-1,1-1h16c0.552,0,1,0.447,1,1v16
		c0,0.552-0.448,1-1,1H1c-0.552,0-1-0.448-1-1V91z"/>
	<path fill-rule="evenodd" clip-rule="evenodd" fill="#FFFFFF" d="M9,74.561c-0.381,0-0.763-0.037-1.134-0.112
		c-0.431-0.087-0.714-0.522-0.631-0.974c0.082-0.452,0.499-0.748,0.93-0.661C8.438,72.869,8.719,72.897,9,72.897
		c2.432,0,4.41-2.071,4.41-4.616c0-2.545-1.978-4.616-4.41-4.616s-4.41,2.071-4.41,4.616c0,0.703,0.147,1.377,0.436,2.005
		c0.191,0.414,0.025,0.911-0.37,1.111c-0.395,0.2-0.87,0.027-1.062-0.387C3.2,70.154,3,69.236,3,68.281C3,64.817,5.692,62,9,62
		c3.308,0,6,2.817,6,6.281C15,71.744,12.308,74.561,9,74.561z M7.271,69.019c0.054-0.065,0.117-0.116,0.184-0.16
		c-0.049-0.162-0.076-0.334-0.076-0.513c0-0.937,0.726-1.697,1.621-1.697c0.895,0,1.621,0.76,1.621,1.697
		c0,0.937-0.726,1.697-1.621,1.697c-0.152,0-0.299-0.023-0.439-0.065c-0.025,0.046-0.054,0.089-0.088,0.13
		c-1.411,1.708-2.451,3.523-2.993,6.25l-0.038-0.006c-0.071,0.368-0.38,0.652-0.768,0.652c-0.441,0-0.798-0.357-0.798-0.798
		c0-0.12,0.031-0.232,0.079-0.334C4.561,72.914,5.709,70.91,7.271,69.019z"/>
	<path fill-rule="evenodd" clip-rule="evenodd" fill="#FFFFFF" d="M7.745,31.836c-3.368,0.524-5.945,3.436-5.945,6.95
		c0,1.782,0.664,3.408,1.756,4.647c2.501-1.439,4.19-4.136,4.19-7.223V31.836z"/>
	<path fill-rule="evenodd" clip-rule="evenodd" fill="#FFFFFF" d="M10.001,31.836c3.368,0.524,5.945,3.436,5.945,6.95
		c0,1.782-0.664,3.408-1.756,4.647c-2.501-1.439-4.19-4.136-4.19-7.223V31.836z"/>
	<path fill-rule="evenodd" clip-rule="evenodd" fill="#FFFFFF" d="M8.873,40.789c-0.804,1.655-2.031,3.068-3.538,4.099
		c1.031,0.593,2.225,0.933,3.5,0.933c1.291,0,2.501-0.349,3.541-0.957C10.884,43.835,9.671,42.431,8.873,40.789z"/>
	<path fill="#FFFFFF" d="M15.509,9.045c-0.532-1.286-2.753-1.173-2.753-1.173s0.691-1.468,0.046-1.94
		c-0.648-0.474-2.406-0.271-3.886,0.654C8.893,5.639,9.171,3.947,8.408,3.744C7.532,3.511,6.148,4.17,4.545,5.819
		C2.856,7.556,2,9.113,2,10.985C2,12.857,3.573,15,7.806,15C12.039,15,16.602,11.687,15.509,9.045z M8.541,14.16
		C5.75,14.429,3.35,13.287,3.18,11.61C3.01,9.933,5.135,8.356,7.927,8.088c2.791-0.268,5.191,0.873,5.361,2.55
		C13.457,12.314,11.332,13.892,8.541,14.16z"/>
	<path fill="#FFFFFF" d="M9.767,10.679c-0.592-0.955-2.024-1.167-3.199-0.475c-1.175,0.693-1.647,2.028-1.055,2.983
		c0.592,0.955,2.024,1.167,3.199,0.475C9.886,12.969,10.359,11.634,9.767,10.679z M7.551,12.771
		c-0.396,0.233-0.876,0.165-1.073-0.153c-0.197-0.318-0.036-0.764,0.36-0.997c0.396-0.233,0.876-0.165,1.073,0.153
		C8.108,12.091,7.947,12.538,7.551,12.771z"/>
	<path fill="#FFFFFF" d="M14.167,6.35c-0.217,0-0.393-0.172-0.393-0.384c0-0.516-0.431-0.936-0.96-0.936
		c-0.217,0-0.393-0.172-0.393-0.384c0-0.212,0.176-0.384,0.393-0.384c0.963,0,1.747,0.764,1.747,1.703
		C14.561,6.178,14.385,6.35,14.167,6.35z"/>
	<path fill="#FFFFFF" d="M15.671,6.256c-0.254,0-0.459-0.2-0.459-0.447c0-1.202-1.003-2.18-2.236-2.18
		c-0.254,0-0.459-0.201-0.459-0.448c0-0.247,0.205-0.447,0.459-0.447c1.739,0,3.154,1.379,3.154,3.075
		C16.13,6.055,15.925,6.256,15.671,6.256z"/>
	<path fill="#FFFFFF" d="M17.475,6.365c-0.289,0-0.524-0.229-0.524-0.511c0-2.112-1.762-3.83-3.928-3.83
		c-0.29,0-0.525-0.229-0.525-0.512C12.498,1.229,12.733,1,13.023,1C15.767,1,18,3.177,18,5.853C18,6.136,17.765,6.365,17.475,6.365z
		"/>
	<g>
		<path fill-rule="evenodd" clip-rule="evenodd" fill="#FFFFFF" d="M9,123.5c-3.314,0-6,2.686-6,6c0,3.314,2.686,6,6,6
			c3.314,0,6-2.686,6-6C15,126.186,12.314,123.5,9,123.5z M9.001,134.318c-2.661,0-4.818-2.158-4.818-4.819
			c0-2.661,2.157-4.818,4.818-4.818c2.661,0,4.818,2.157,4.818,4.818C13.819,132.161,11.662,134.318,9.001,134.318z"/>
		<path fill-rule="evenodd" clip-rule="evenodd" fill="#FFFFFF" d="M9.764,125.177c0.054-0.323,0.108-0.645,0.161-0.968
			c0.435,0.083,0.85,0.223,1.236,0.413C10.778,124.899,10.278,125.063,9.764,125.177z M8.108,124.207
			c0.293-0.055,0.594-0.085,0.903-0.085c0.246,0,0.487,0.019,0.723,0.054c-0.379,0-0.758,0-1.137,0
			c0.222,0.222,0.445,0.445,0.667,0.667c-0.278,0.056-0.556,0.111-0.834,0.167c0.417,0.545,0.503,0.359,0.72,0.835
			c-0.987,0.058-0.733,0.849-1.167,1.306c-0.294,0.31-0.984,0.527-1.054,0.862c-0.579-0.224-0.799-0.359-1.501-0.167
			c0,0.222,0,0.445,0,0.667c0.596,0.081,0.58-0.262,0.5,0.334c0.341,0.3,0.118,0.003,0.334,0.501
			c-0.951-0.538-1.502-0.943-1.965-1.581c0.411-1.585,1.601-2.854,3.136-3.38c0.131,0.025,0.239,0.064,0.33,0.124
			c0.326,0.41,0.095,0.068,0.167,0.5c-0.334,0.056-0.667,0.111-1.001,0.167c0.056,0.111,0.111,0.222,0.167,0.334
			c0.321,0.232,0.1,0.017,0.333,0.334c0.167-0.111,0.334-0.222,0.5-0.334c0.222-0.278,0.445-0.556,0.667-0.834
			C8.134,124.295,8.342,124.815,8.108,124.207z M7.929,129.18c0.96,1.415,2.13,0.557,1.791,2.521
			c-0.752,0.423-1.314,1.304-1.634,2.076c-0.152-0.029-0.3-0.065-0.447-0.108c-0.221-1.358-0.349-2.653-1.343-3.105
			c0-0.056-0.035-1.162-0.035-1.217c0.222-0.056,0.445-0.111,0.667-0.167C7.262,129.18,7.596,129.18,7.929,129.18z M13.1,127.178
			c0.147,0.009,0.295,0.017,0.442,0.026c0.219,0.554,0.341,1.158,0.341,1.79c0,0.235-0.018,0.465-0.05,0.691
			c-1.319,0.067-1.662-0.077-1.734-1.339c0.475-0.811,0.853-1.359,0.984-2.025c0.1,0.151,0.191,0.309,0.274,0.472
			C13.271,126.921,13.186,127.05,13.1,127.178z"/>
	</g>
	<path fill="#FFFFFF" d="M2.945,94.297h12.026v-1.292H2.945V94.297z M2.705,105.377h12.725v-1.433h-3.626l1.461-2.362l-1.213-0.404
		h1.93v-5.222H3.935v5.222h1.547l-1.035,0.284c0.589,0.734,0.994,1.916,1.359,2.41l-3.1,0.071V105.377z M5.484,99.909v-2.685h6.877
		v2.685H5.484z M6.564,101.178h5.019c-0.542,0.963-1.094,1.885-1.656,2.766H6.732l0.977-0.578c-0.344-0.474-0.773-1.132-1.286-2.187
		H6.564z"/>
	<path fill-rule="evenodd" clip-rule="evenodd" fill="#FFFFFF" d="M39,74.561c-0.381,0-0.763-0.037-1.134-0.112
		c-0.431-0.087-0.714-0.522-0.631-0.974c0.082-0.452,0.499-0.748,0.93-0.661c0.273,0.055,0.554,0.082,0.835,0.082
		c2.432,0,4.41-2.071,4.41-4.616c0-2.545-1.978-4.616-4.41-4.616s-4.41,2.071-4.41,4.616c0,0.703,0.147,1.377,0.436,2.005
		c0.191,0.414,0.025,0.911-0.37,1.111c-0.395,0.2-0.87,0.027-1.062-0.387C33.2,70.154,33,69.236,33,68.281
		C33,64.817,35.692,62,39,62c3.308,0,6,2.817,6,6.281C45,71.744,42.308,74.561,39,74.561z M37.271,69.019
		c0.054-0.065,0.117-0.116,0.184-0.16c-0.049-0.162-0.076-0.334-0.076-0.513c0-0.937,0.726-1.697,1.621-1.697
		c0.895,0,1.621,0.76,1.621,1.697c0,0.937-0.726,1.697-1.621,1.697c-0.152,0-0.299-0.023-0.439-0.065
		c-0.025,0.046-0.054,0.089-0.088,0.13c-1.411,1.708-2.451,3.523-2.993,6.25l-0.038-0.006c-0.071,0.368-0.38,0.652-0.769,0.652
		c-0.441,0-0.798-0.357-0.798-0.798c0-0.12,0.031-0.232,0.079-0.334C34.561,72.914,35.709,70.91,37.271,69.019z"/>
	<path fill-rule="evenodd" clip-rule="evenodd" fill="#FFFFFF" d="M37.745,31.836c-3.368,0.524-5.945,3.436-5.945,6.95
		c0,1.782,0.664,3.408,1.756,4.647c2.501-1.439,4.19-4.136,4.19-7.223V31.836z"/>
	<path fill-rule="evenodd" clip-rule="evenodd" fill="#FFFFFF" d="M40.001,31.836c3.368,0.524,5.945,3.436,5.945,6.95
		c0,1.782-0.664,3.408-1.756,4.647c-2.501-1.439-4.19-4.136-4.19-7.223V31.836z"/>
	<path fill-rule="evenodd" clip-rule="evenodd" fill="#FFFFFF" d="M38.873,40.789c-0.804,1.655-2.031,3.068-3.538,4.099
		c1.031,0.593,2.225,0.933,3.5,0.933c1.291,0,2.501-0.349,3.541-0.957C40.884,43.835,39.671,42.431,38.873,40.789z"/>
	<path fill="#FFFFFF" d="M45.509,9.045c-0.532-1.286-2.753-1.173-2.753-1.173s0.691-1.468,0.046-1.94
		c-0.648-0.474-2.406-0.271-3.886,0.654c-0.023-0.947,0.254-2.639-0.509-2.842c-0.875-0.233-2.259,0.426-3.863,2.075
		C32.856,7.556,32,9.113,32,10.985C32,12.857,33.573,15,37.806,15C42.039,15,46.602,11.687,45.509,9.045z M38.541,14.16
		c-2.791,0.269-5.191-0.873-5.361-2.55c-0.17-1.677,1.955-3.254,4.746-3.523c2.791-0.268,5.191,0.873,5.361,2.55
		C43.457,12.314,41.332,13.892,38.541,14.16z"/>
	<path fill="#FFFFFF" d="M39.767,10.679c-0.592-0.955-2.024-1.167-3.199-0.475c-1.175,0.693-1.647,2.028-1.055,2.983
		c0.592,0.955,2.024,1.167,3.199,0.475C39.886,12.969,40.359,11.634,39.767,10.679z M37.551,12.771
		c-0.396,0.233-0.876,0.165-1.073-0.153c-0.197-0.318-0.036-0.764,0.36-0.997c0.396-0.233,0.876-0.165,1.073,0.153
		C38.108,12.091,37.947,12.538,37.551,12.771z"/>
	<path fill="#FFFFFF" d="M44.167,6.35c-0.217,0-0.393-0.172-0.393-0.384c0-0.516-0.431-0.936-0.96-0.936
		c-0.217,0-0.393-0.172-0.393-0.384c0-0.212,0.176-0.384,0.393-0.384c0.963,0,1.747,0.764,1.747,1.703
		C44.561,6.178,44.385,6.35,44.167,6.35z"/>
	<path fill="#FFFFFF" d="M45.671,6.256c-0.254,0-0.459-0.2-0.459-0.447c0-1.202-1.003-2.18-2.236-2.18
		c-0.254,0-0.459-0.201-0.459-0.448c0-0.247,0.205-0.447,0.459-0.447c1.739,0,3.154,1.379,3.154,3.075
		C46.13,6.055,45.924,6.256,45.671,6.256z"/>
	<path fill="#FFFFFF" d="M32.945,94.297h12.026v-1.292H32.945V94.297z M32.706,105.377h12.725v-1.433h-3.626l1.461-2.362
		l-1.213-0.404h1.93v-5.222H33.935v5.222h1.547l-1.035,0.284c0.588,0.734,0.994,1.916,1.359,2.41l-3.1,0.071V105.377z
		 M35.484,99.909v-2.685h6.877v2.685H35.484z M36.564,101.178h5.019c-0.542,0.963-1.093,1.885-1.656,2.766h-3.195l0.977-0.578
		c-0.344-0.474-0.773-1.132-1.286-2.187H36.564z"/>
</g>
</svg>
