<?xml version="1.0" encoding="UTF-8" standalone="no"?>
<svg width="16px" height="55px" viewBox="0 0 16 55" version="1.1" xmlns="http://www.w3.org/2000/svg" xmlns:xlink="http://www.w3.org/1999/xlink" xmlns:sketch="http://www.bohemiancoding.com/sketch/ns">
    <!-- Generator: Sketch 3.0.3 (7891) - http://www.bohemiancoding.com/sketch -->
    <title>report_icon</title>
    <desc>Created with Sketch.</desc>
    <defs></defs>
    <g id="Page-1" stroke="none" stroke-width="1" fill="none" fill-rule="evenodd" sketch:type="MSPage">
        <g id="all" sketch:type="MSArtboardGroup" transform="translate(-435.000000, -298.000000)">
            <g id="icon_report" sketch:type="MSLayerGroup" transform="translate(435.000000, 298.000000)">
                <path d="M15.116,14.015 C15.844,14.015 16.197,13.266 15.878,12.695 C15.442,11.915 9.161,1.148 8.769,0.489 C8.417,-0.102 7.58,-0.112 7.229,0.489 C6.695,1.404 0.446,12.131 0.136,12.667 C-0.25,13.337 0.241,14.015 0.902,14.015 L15.116,14.015 Z" id="Shape" fill="#D8D8D8" sketch:type="MSShapeGroup"></path>
                <rect id="Rectangle-path" fill="#FFFFFF" sketch:type="MSShapeGroup" x="7" y="4" width="2" height="6"></rect>
                <rect id="Rectangle-path" fill="#FFFFFF" sketch:type="MSShapeGroup" x="7" y="11" width="2" height="2"></rect>
                <path d="M8.769,20.489 C8.417,19.898 7.58,19.888 7.229,20.489 C6.694,21.404 0.446,32.131 0.136,32.667 C-0.251,33.337 0.241,34.014 0.902,34.014 L15.116,34.014 C15.844,34.014 16.197,33.265 15.878,32.694 C15.442,31.915 9.161,21.148 8.769,20.489 L8.769,20.489 Z" id="Shape" fill="#B0B1B0" sketch:type="MSShapeGroup"></path>
                <rect id="Rectangle-path" fill="#FFFFFF" sketch:type="MSShapeGroup" x="7" y="31" width="2" height="2"></rect>
                <rect id="Rectangle-path" fill="#FFFFFF" sketch:type="MSShapeGroup" x="7" y="24" width="2" height="6"></rect>
                <path d="M7.229,40.489 C6.694,41.404 0.446,52.131 0.136,52.667 C-0.251,53.337 0.241,54.014 0.902,54.014 L15.116,54.014 C15.844,54.014 16.197,53.265 15.878,52.694 C15.442,51.915 9.161,41.148 8.769,40.489 C8.417,39.898 7.58,39.888 7.229,40.489 Z" id="Shape" fill="#989898" sketch:type="MSShapeGroup"></path>
                <rect id="Rectangle-path" fill="#FFFFFF" sketch:type="MSShapeGroup" x="7" y="51" width="2" height="2"></rect>
                <rect id="Rectangle-path" fill="#FFFFFF" sketch:type="MSShapeGroup" x="7" y="44" width="2" height="6"></rect>
            </g>
        </g>
    </g>
</svg>